<?xml version="1.0" standalone="no"?>
<!DOCTYPE svg PUBLIC "-//W3C//DTD SVG 20010904//EN"
 "http://www.w3.org/TR/2001/REC-SVG-20010904/DTD/svg10.dtd">
<svg version="1.0" xmlns="http://www.w3.org/2000/svg"
 width="150.000000pt" height="70.000000pt" viewBox="0 0 150.000000 70.000000"
 preserveAspectRatio="xMidYMid meet">

<g transform="translate(0.000000,70.000000) scale(0.100000,-0.100000)"
fill="#00dba0" stroke="none">
<path d="M678 636 c-70 -31 -127 -117 -128 -192 0 -62 44 -140 98 -175 37 -24
57 -29 105 -29 72 0 117 20 162 72 89 105 50 269 -77 323 -44 18 -121 18 -160
1z m58 -4 c-2 -4 4 -13 15 -20 14 -9 19 -9 19 -1 0 8 5 8 15 -1 18 -15 20 1 3
19 -11 11 -8 12 12 6 45 -14 77 -34 105 -67 l28 -33 -38 -3 c-21 -2 -41 2 -45
8 -5 8 -9 7 -13 -4 -4 -9 -2 -16 3 -16 6 0 11 -8 11 -17 1 -17 2 -17 6 0 3 12
15 17 43 17 39 0 50 -11 50 -52 0 -15 -5 -19 -20 -15 -12 3 -24 -1 -31 -11 -9
-14 -10 -13 -6 6 3 12 1 20 -4 16 -5 -3 -10 -13 -10 -22 -1 -9 -5 -3 -9 13 -7
28 -8 29 -10 5 -1 -23 -2 -24 -11 -5 -8 17 -9 16 -6 -7 3 -16 0 -28 -6 -28 -6
0 -2 -9 7 -19 26 -28 13 -129 -18 -141 -11 -4 -24 -6 -28 -3 -17 10 -8 174 13
239 23 71 20 93 -6 47 l-16 -28 6 38 c3 21 2 37 -4 37 -5 0 -13 -17 -18 -37
l-9 -38 -8 48 c-4 26 -11 45 -17 42 -5 -4 -9 -1 -9 5 0 6 -5 8 -11 4 -8 -5 -6
-10 5 -16 11 -6 16 -22 15 -51 l-1 -42 -15 43 c-8 23 -19 40 -23 37 -5 -3 -2
-24 6 -47 18 -52 18 -51 -8 -43 -19 5 -17 1 12 -27 l35 -34 -6 -87 c-3 -48 -8
-89 -10 -92 -12 -12 -50 10 -55 32 -7 28 0 117 12 147 5 13 4 17 -3 13 -13 -8
-26 35 -17 57 3 9 14 16 23 16 13 0 13 2 2 9 -8 5 -10 14 -6 22 5 8 -1 6 -12
-3 -21 -19 -83 -25 -83 -8 0 18 70 80 103 89 42 12 49 13 43 3z m-79 -154 c1
-40 0 -42 -14 -23 -15 19 -15 19 -9 -10 l6 -30 -15 25 -16 25 7 -24 c4 -14 1
-26 -6 -31 -9 -6 -7 -11 9 -19 17 -10 21 -21 21 -59 l-1 -47 -26 30 -26 30 24
6 c23 7 23 7 -3 8 -16 1 -28 2 -28 4 0 1 -4 17 -9 35 -9 29 -7 34 12 42 l22 9
-23 0 c-19 1 -21 5 -16 29 10 40 12 42 52 42 37 0 37 -1 39 -42z m293 -57 c0
-38 -13 -61 -34 -61 -17 0 -18 -2 -6 -10 13 -8 11 -13 -9 -32 l-23 -23 6 40
c16 92 25 113 46 108 11 -3 20 -13 20 -22z"/>
<path d="M680 337 c0 -13 9 -32 20 -42 11 -10 20 -13 20 -8 0 6 -7 16 -15 23
-22 18 -18 38 8 43 19 4 18 4 -5 6 -23 1 -28 -3 -28 -22z"/>
<path d="M813 353 c11 -3 16 -10 13 -19 -17 -41 -16 -46 3 -19 27 39 26 45 -6
44 -19 -1 -22 -3 -10 -6z"/>
<path d="M150 140 c-24 -24 -24 -29 -4 -58 15 -22 38 -27 68 -16 28 11 17 24
-15 17 -36 -7 -53 11 -38 40 8 14 17 17 42 12 30 -6 31 -5 13 10 -26 20 -42
19 -66 -5z"/>
<path d="M250 110 c0 -27 5 -50 10 -50 6 0 10 14 10 30 0 17 5 30 10 30 6 0
10 -13 10 -30 0 -20 5 -30 15 -30 16 0 18 12 9 48 -4 13 -14 22 -25 22 -11 0
-19 7 -19 15 0 8 -4 15 -10 15 -5 0 -10 -22 -10 -50z"/>
<path d="M490 150 c0 -5 5 -10 10 -10 6 0 10 5 10 10 0 6 -4 10 -10 10 -5 0
-10 -4 -10 -10z"/>
<path d="M728 149 c-22 -12 -24 -62 -4 -78 18 -15 68 -11 73 6 3 7 -8 11 -29
10 -29 -2 -33 1 -33 23 0 22 4 25 34 22 29 -2 32 0 21 13 -14 17 -37 19 -62 4z"/>
<path d="M528 138 c-9 -27 7 -73 27 -77 17 -3 18 -1 5 14 -10 13 -11 21 -3 35
9 13 9 20 0 29 -14 14 -24 14 -29 -1z"/>
<path d="M335 111 c-10 -33 5 -51 41 -51 32 0 34 2 34 35 0 33 -2 35 -34 35
-25 0 -36 -5 -41 -19z m52 -7 c8 -20 -8 -36 -26 -25 -15 10 -8 41 9 41 6 0 13
-7 17 -16z"/>
<path d="M430 95 c0 -19 5 -35 10 -35 6 0 10 10 10 21 0 12 8 28 18 35 15 12
14 13 -10 14 -25 0 -28 -3 -28 -35z"/>
<path d="M490 95 c0 -19 5 -35 10 -35 6 0 10 16 10 35 0 19 -4 35 -10 35 -5 0
-10 -16 -10 -35z"/>
<path d="M580 123 c1 -5 7 -19 14 -32 7 -13 11 -32 8 -43 -9 -36 16 -17 32 25
19 49 19 57 7 57 -5 0 -13 -10 -17 -22 l-7 -23 -8 23 c-8 20 -29 32 -29 15z"/>
<path d="M824 116 c-10 -27 1 -51 26 -54 31 -5 53 23 39 49 -12 22 -57 25 -65
5z m45 -33 c-15 -18 -34 -1 -25 22 5 14 9 15 21 5 12 -10 13 -16 4 -27z"/>
<path d="M910 95 c0 -41 17 -48 22 -7 4 33 22 32 26 -3 2 -14 7 -25 12 -25 5
0 10 11 12 25 4 33 22 33 26 0 5 -37 24 -30 20 8 -3 32 -4 32 -60 35 l-58 3 0
-36z"/>
<path d="M1050 80 c0 -27 5 -50 10 -50 6 0 10 7 10 15 0 9 9 15 25 15 18 0 26
7 31 24 8 35 -2 46 -42 46 l-34 0 0 -50z m57 24 c8 -21 -13 -42 -28 -27 -13
13 -5 43 11 43 6 0 13 -7 17 -16z"/>
<path d="M1149 114 c-19 -23 1 -48 40 -52 30 -3 31 -2 31 32 0 33 -2 36 -29
36 -16 0 -34 -7 -42 -16z m47 -30 c-6 -17 -8 -17 -24 0 -15 15 -15 18 -2 26
19 12 35 -3 26 -26z"/>
<path d="M1245 120 c-8 -14 3 -30 21 -30 8 0 14 -5 14 -11 0 -6 -9 -8 -20 -4
-11 4 -20 2 -20 -4 0 -6 14 -11 30 -11 23 0 30 4 30 20 0 11 -6 20 -14 20 -8
0 -18 5 -22 12 -5 8 -2 9 9 5 9 -3 19 -2 22 3 4 6 -5 10 -19 10 -14 0 -28 -4
-31 -10z"/>
<path d="M1320 110 c0 -11 7 -20 15 -20 8 0 15 -4 15 -10 0 -5 -7 -7 -15 -4
-8 4 -15 1 -15 -6 0 -16 52 -9 58 8 2 7 -5 16 -17 19 -12 3 -21 9 -21 14 0 5
7 6 15 3 8 -4 15 -1 15 5 0 6 -11 11 -25 11 -18 0 -25 -5 -25 -20z"/>
</g>
</svg>
